<svg xmlns="http://www.w3.org/2000/svg" width="800" height="800" viewBox="0 0 800 800" version="1.1"><path d="M 202.500 255.647 C 176.229 258.693, 157.591 265.075, 139.189 277.325 C 99.604 303.678, 78.051 351.167, 80.336 407 C 81.377 432.436, 85.509 450.382, 95.014 470.740 C 107.059 496.540, 129.626 519.597, 154.500 531.517 C 188.743 547.927, 235.518 549.170, 266.448 534.493 C 274.611 530.619, 287.124 521.627, 293.453 515.085 C 295.762 512.698, 298.337 511, 299.645 511 C 300.913 511, 304.401 513.214, 307.692 516.110 C 330.572 536.240, 356.273 544.288, 398 544.391 C 420.890 544.447, 432.918 542.899, 448.165 537.935 C 463.354 532.991, 472.756 527.569, 484.321 517.089 C 488.693 513.126, 491.894 511, 493.487 511 C 495.096 511, 498.427 513.251, 503.217 517.574 C 516.344 529.423, 528.503 535.727, 547 540.274 C 555.196 542.289, 558.393 542.376, 636.500 542.731 L 717.500 543.100 719.250 540.939 C 720.212 539.751, 721 537.933, 721 536.899 C 721 535.817, 712.731 526.426, 701.505 514.760 C 690.782 503.617, 682.007 493.727, 682.005 492.781 C 682.002 491.836, 683.968 488.011, 686.373 484.281 C 696.176 469.082, 704.058 448.780, 707.641 429.500 C 710.500 414.118, 710.298 380.439, 707.256 365.443 C 695.862 309.268, 660.547 271.174, 608.565 258.983 C 596.301 256.107, 579.879 254.667, 567.500 255.381 C 539.216 257.014, 518.969 265.160, 500.053 282.520 C 495.513 286.686, 492.145 289, 490.620 289 C 489.109 289, 485.586 286.612, 480.903 282.413 C 465.470 268.574, 446.600 260.578, 420.500 256.817 C 409.156 255.182, 376.101 255.217, 365.500 256.875 C 340.458 260.792, 321.473 269.335, 306.024 283.638 C 302.619 286.790, 299.313 289, 298 289 C 296.671 289, 293.284 286.699, 289.634 283.317 C 271.874 266.863, 256.644 259.509, 234 256.455 C 224.380 255.158, 209.922 254.787, 202.500 255.647 M 157 307.213 C 149.352 310.146, 140.156 319.433, 136.912 327.500 L 134.500 333.500 134.500 399.500 L 134.500 465.500 136.804 471.202 C 140.033 479.193, 146.688 486.229, 154.793 490.219 L 161.455 493.500 216.319 493.775 C 270.050 494.044, 271.252 494.008, 274.485 492.009 C 280.355 488.382, 281 485.567, 281 463.599 C 281 445.333, 281.136 443.864, 283 442 C 284.863 440.137, 286.333 440, 304.500 440 C 322.667 440, 324.137 440.137, 326 442 C 327.864 443.864, 328 445.333, 328 463.599 C 328 485.565, 328.646 488.382, 334.512 492.007 C 337.749 494.008, 338.931 494.041, 397.878 493.773 L 457.945 493.500 460.223 491.225 C 462.367 489.083, 462.519 488.033, 462.825 473.225 C 463.243 452.996, 462.753 449.820, 458.567 445.633 C 455.008 442.075, 456.655 442.585, 370.606 418.373 C 329.762 406.880, 317.656 400.943, 302.834 385.137 C 293.724 375.421, 288.845 367.243, 284.856 355 C 282.156 346.714, 281.674 343.518, 281.087 330 C 280.576 318.228, 280 313.722, 278.690 311.267 C 275.267 304.848, 276.730 304.995, 216.800 305.052 C 164.036 305.103, 162.344 305.164, 157 307.213 M 333.420 306.885 C 328.363 309.970, 327.500 313.556, 327.500 331.500 C 327.500 345.810, 327.722 347.923, 329.598 351.500 C 333.066 358.114, 327.707 356.243, 417 382.015 C 457.983 393.844, 472.441 400.661, 486.956 415 C 503.554 431.397, 510.872 449.379, 510.967 474 C 511.009 484.921, 512.622 489.349, 517.608 492.225 C 520.503 493.895, 524.228 494.001, 571.879 493.759 L 623.042 493.500 599.521 469.296 C 586.584 455.984, 575.947 444.509, 575.882 443.796 C 575.594 440.654, 576.801 438.993, 587.832 427.348 C 596.979 417.692, 600.070 415.028, 602.139 415.015 C 604.266 415.003, 608.758 419.079, 625.265 436 C 644.438 455.653, 645.982 457, 649.353 457 C 656.358 457, 656.110 459.498, 655.787 392.368 L 655.500 332.500 652.631 326.288 C 648.830 318.060, 640.526 310.089, 632.709 307.164 C 627.035 305.041, 625.875 305, 571.712 305.004 C 518.716 305.007, 516.372 305.086, 513.299 306.960 C 507.514 310.486, 507 312.731, 507 334.450 C 507 352.667, 506.864 354.136, 505 356 C 503.134 357.866, 501.667 358, 483.155 358 C 465.523 358, 463.134 357.805, 461.732 356.250 C 460.434 354.811, 460.095 351.035, 459.827 335 C 459.463 313.307, 458.794 310.675, 452.701 306.960 C 449.626 305.084, 447.277 305.007, 393 305.007 C 339.483 305.007, 336.337 305.107, 333.420 306.885" stroke="none" fill="#fbfafa" fill-rule="evenodd"/><path d="M 366.500 0.650 C 314.783 6.053, 274.618 16.777, 231.676 36.650 C 139.660 79.233, 65.487 157.427, 28.104 251.255 C 15.856 281.999, 7.963 312.058, 2.834 347.500 C 0.744 361.937, 0.519 367.066, 0.532 400 C 0.548 439.249, 1.578 451.051, 7.507 479.946 C 31.017 594.526, 102.833 692.484, 205.550 750.080 C 248.823 774.344, 294.557 789.513, 347.500 797.162 C 361.904 799.244, 367.140 799.474, 400 799.474 C 439.259 799.474, 450.862 798.461, 479.946 792.493 C 648.990 757.808, 778.641 616.947, 797.485 447.500 C 798.402 439.250, 799.568 431.118, 800.076 429.429 C 801.348 425.202, 801.274 368.028, 800 370 C 799.297 371.088, 799.026 370.233, 799.015 366.885 C 798.995 360.726, 795.506 335.071, 792.912 322 C 770.106 207.096, 697.679 107.803, 594.450 49.920 C 551.424 25.794, 505.423 10.502, 453 2.896 C 440.958 1.149, 432.737 0.745, 404.500 0.512 C 385.800 0.358, 368.700 0.420, 366.500 0.650 M 202.500 255.647 C 176.229 258.693, 157.591 265.075, 139.189 277.325 C 99.604 303.678, 78.051 351.167, 80.336 407 C 81.377 432.436, 85.509 450.382, 95.014 470.740 C 107.059 496.540, 129.626 519.597, 154.500 531.517 C 188.743 547.927, 235.518 549.170, 266.448 534.493 C 274.611 530.619, 287.124 521.627, 293.453 515.085 C 295.762 512.698, 298.337 511, 299.645 511 C 300.913 511, 304.401 513.214, 307.692 516.110 C 330.572 536.240, 356.273 544.288, 398 544.391 C 420.890 544.447, 432.918 542.899, 448.165 537.935 C 463.354 532.991, 472.756 527.569, 484.321 517.089 C 488.693 513.126, 491.894 511, 493.487 511 C 495.096 511, 498.427 513.251, 503.217 517.574 C 516.344 529.423, 528.503 535.727, 547 540.274 C 555.196 542.289, 558.393 542.376, 636.500 542.731 L 717.500 543.100 719.250 540.939 C 720.212 539.751, 721 537.933, 721 536.899 C 721 535.817, 712.731 526.426, 701.505 514.760 C 690.782 503.617, 682.007 493.727, 682.005 492.781 C 682.002 491.836, 683.968 488.011, 686.373 484.281 C 696.176 469.082, 704.058 448.780, 707.641 429.500 C 710.500 414.118, 710.298 380.439, 707.256 365.443 C 695.862 309.268, 660.547 271.174, 608.565 258.983 C 596.301 256.107, 579.879 254.667, 567.500 255.381 C 539.216 257.014, 518.969 265.160, 500.053 282.520 C 495.513 286.686, 492.145 289, 490.620 289 C 489.109 289, 485.586 286.612, 480.903 282.413 C 465.470 268.574, 446.600 260.578, 420.500 256.817 C 409.156 255.182, 376.101 255.217, 365.500 256.875 C 340.458 260.792, 321.473 269.335, 306.024 283.638 C 302.619 286.790, 299.313 289, 298 289 C 296.671 289, 293.284 286.699, 289.634 283.317 C 271.874 266.863, 256.644 259.509, 234 256.455 C 224.380 255.158, 209.922 254.787, 202.500 255.647 M 157 307.213 C 149.352 310.146, 140.156 319.433, 136.912 327.500 L 134.500 333.500 134.500 399.500 L 134.500 465.500 136.804 471.202 C 140.033 479.193, 146.688 486.229, 154.793 490.219 L 161.455 493.500 216.319 493.775 C 270.050 494.044, 271.252 494.008, 274.485 492.009 C 280.355 488.382, 281 485.567, 281 463.599 C 281 445.333, 281.136 443.864, 283 442 C 284.863 440.137, 286.333 440, 304.500 440 C 322.667 440, 324.137 440.137, 326 442 C 327.864 443.864, 328 445.333, 328 463.599 C 328 485.565, 328.646 488.382, 334.512 492.007 C 337.749 494.008, 338.931 494.041, 397.878 493.773 L 457.945 493.500 460.223 491.225 C 462.367 489.083, 462.519 488.033, 462.825 473.225 C 463.243 452.996, 462.753 449.820, 458.567 445.633 C 455.008 442.075, 456.655 442.585, 370.606 418.373 C 329.762 406.880, 317.656 400.943, 302.834 385.137 C 293.724 375.421, 288.845 367.243, 284.856 355 C 282.156 346.714, 281.674 343.518, 281.087 330 C 280.576 318.228, 280 313.722, 278.690 311.267 C 275.267 304.848, 276.730 304.995, 216.800 305.052 C 164.036 305.103, 162.344 305.164, 157 307.213 M 333.420 306.885 C 328.363 309.970, 327.500 313.556, 327.500 331.500 C 327.500 345.810, 327.722 347.923, 329.598 351.500 C 333.066 358.114, 327.707 356.243, 417 382.015 C 457.983 393.844, 472.441 400.661, 486.956 415 C 503.554 431.397, 510.872 449.379, 510.967 474 C 511.009 484.921, 512.622 489.349, 517.608 492.225 C 520.503 493.895, 524.228 494.001, 571.879 493.759 L 623.042 493.500 599.521 469.296 C 586.584 455.984, 575.947 444.509, 575.882 443.796 C 575.594 440.654, 576.801 438.993, 587.832 427.348 C 596.979 417.692, 600.070 415.028, 602.139 415.015 C 604.266 415.003, 608.758 419.079, 625.265 436 C 644.438 455.653, 645.982 457, 649.353 457 C 656.358 457, 656.110 459.498, 655.787 392.368 L 655.500 332.500 652.631 326.288 C 648.830 318.060, 640.526 310.089, 632.709 307.164 C 627.035 305.041, 625.875 305, 571.712 305.004 C 518.716 305.007, 516.372 305.086, 513.299 306.960 C 507.514 310.486, 507 312.731, 507 334.450 C 507 352.667, 506.864 354.136, 505 356 C 503.134 357.866, 501.667 358, 483.155 358 C 465.523 358, 463.134 357.805, 461.732 356.250 C 460.434 354.811, 460.095 351.035, 459.827 335 C 459.463 313.307, 458.794 310.675, 452.701 306.960 C 449.626 305.084, 447.277 305.007, 393 305.007 C 339.483 305.007, 336.337 305.107, 333.420 306.885 M 0.443 399.500 C 0.443 416, 0.580 422.890, 0.748 414.812 C 0.915 406.733, 0.916 393.233, 0.748 384.812 C 0.581 376.390, 0.444 383, 0.443 399.500" stroke="none" fill="#7c0434" fill-rule="evenodd"/></svg>